<?xml version="1.0" encoding="UTF-8"?>
<svg id="Layer_2" data-name="Layer 2" xmlns="http://www.w3.org/2000/svg" viewBox="0 0 893.25 101.34">
  <defs>
    <style>
      .cls-1 {
        fill: none;
        stroke: #e4e4e4;
        stroke-miterlimit: 10;
        stroke-width: 3px;
      }
    </style>
  </defs>
  <g id="BACKGROUND">
    <g>
      <path class="cls-1" d="M37.3,1.5h24.07l36.66,95.75h-27.77l-4.79-13.95h-31.32l-4.65,13.95H2.15L37.3,1.5ZM58.37,62.37l-8.75-25.71-8.48,25.71h17.23Z"/>
      <path class="cls-1" d="M99.26,1.5h30.5l17.1,53.48L165.05,1.5h29.54l-35.97,95.75h-25.17L99.26,1.5Z"/>
      <path class="cls-1" d="M230.43,1.5h24.07l36.66,95.75h-27.77l-4.79-13.95h-31.32l-4.65,13.95h-27.36L230.43,1.5ZM251.5,62.37l-8.75-25.71-8.48,25.71h17.23Z"/>
      <path class="cls-1" d="M315.37,1.5h29.41v95.75h-29.41V1.5Z"/>
      <path class="cls-1" d="M374.6,1.5h29.41v70.44h34.2v25.3h-63.6V1.5Z"/>
      <path class="cls-1" d="M494.55,1.5h24.07l36.66,95.75h-27.77l-4.79-13.95h-31.32l-4.65,13.95h-27.36L494.55,1.5ZM515.61,62.37l-8.75-25.71-8.48,25.71h17.23Z"/>
      <path class="cls-1" d="M579.49,1.5h45.55c18.33,0,31.19,6.43,31.19,23.8,0,9.98-4.1,18.19-15.05,21.47,9.71,3.15,18.6,10.12,18.6,23.8s-8.21,26.67-37.07,26.67h-43.22V1.5ZM615.73,40.48c7.93,0,11.22-3.69,11.22-10.53s-3.15-10.94-10.53-10.94h-7.52v21.47h6.84ZM617.65,79.74c7.52,0,12.31-2.87,12.31-10.94,0-9.3-6.29-11.35-13.68-11.35h-7.39v22.29h8.75Z"/>
      <path class="cls-1" d="M685.35,1.5h29.41v70.44h34.19v25.3h-63.6V1.5Z"/>
      <path class="cls-1" d="M774.26,1.5h62.51v21.06h-33.1v17.23h28.86v20.24h-28.86v16.14h33.1v21.06h-62.51V1.5Z"/>
      <path class="cls-1" d="M860.84,84.39c0-9.03,6.84-15.59,15.46-15.59s15.46,6.57,15.46,15.59-6.98,15.46-15.46,15.46-15.46-6.57-15.46-15.46ZM861.52,1.5h29.54l-3.69,60.59h-22.29l-3.56-60.59Z"/>
    </g>
  </g>
</svg>