<?xml version="1.0" encoding="UTF-8"?>
<svg id="Layer_2" data-name="Layer 2" xmlns="http://www.w3.org/2000/svg" viewBox="0 0 673.17 56.14">
  <defs>
    <style>
      .cls-1 {
        fill: none;
        stroke: #e4e4e4;
        stroke-miterlimit: 10;
        stroke-width: 3px;
      }
    </style>
  </defs>
  <g id="BACKGROUND">
    <g>
      <path class="cls-1" d="M20.65,2.87h12.67l19.3,50.4h-14.62l-2.52-7.34h-16.49l-2.45,7.34H2.15L20.65,2.87ZM31.74,34.91l-4.61-13.54-4.46,13.54h9.07Z"/>
      <path class="cls-1" d="M53.27,2.87h16.06l9,28.15,9.58-28.15h15.55l-18.94,50.4h-13.25L53.27,2.87Z"/>
      <path class="cls-1" d="M122.32,2.87h12.67l19.3,50.4h-14.62l-2.52-7.34h-16.49l-2.45,7.34h-14.4L122.32,2.87ZM133.41,34.91l-4.61-13.54-4.46,13.54h9.07Z"/>
      <path class="cls-1" d="M167.03,2.87h15.48v50.4h-15.48V2.87Z"/>
      <path class="cls-1" d="M198.2,2.87h15.48v37.08h18v13.32h-33.48V2.87Z"/>
      <path class="cls-1" d="M261.35,2.87h12.67l19.3,50.4h-14.62l-2.52-7.34h-16.49l-2.45,7.34h-14.4l18.51-50.4ZM272.44,34.91l-4.61-13.54-4.46,13.54h9.07Z"/>
      <path class="cls-1" d="M306.06,2.87h23.98c9.65,0,16.42,3.38,16.42,12.53,0,5.26-2.16,9.58-7.92,11.31,5.11,1.66,9.79,5.33,9.79,12.53s-4.32,14.04-19.51,14.04h-22.75V2.87ZM325.14,23.39c4.18,0,5.9-1.94,5.9-5.54s-1.66-5.76-5.54-5.76h-3.96v11.3h3.6ZM326.15,44.06c3.96,0,6.48-1.51,6.48-5.76,0-4.9-3.31-5.98-7.2-5.98h-3.89v11.74h4.61Z"/>
      <path class="cls-1" d="M361.79,2.87h15.48v37.08h18v13.32h-33.48V2.87Z"/>
      <path class="cls-1" d="M408.58,2.87h32.91v11.09h-17.43v9.07h15.19v10.66h-15.19v8.5h17.43v11.09h-32.91V2.87Z"/>
      <path class="cls-1" d="M486.78,2.87h11.09l19.3,27.36V2.87h12.31v50.4h-11.02l-19.44-26.71v26.71h-12.24V2.87Z"/>
      <path class="cls-1" d="M543.22,28.5c0-16.35,8.86-27,26.21-27s26.21,10.8,26.21,26.79c0,17.5-10.66,26.35-26.57,26.35s-25.85-8.93-25.85-26.14ZM579.73,28.36c0-10.3-3.6-16.35-10.3-16.35s-10.3,6.19-10.3,16.2,3.74,15.91,10.37,15.91,10.22-5.54,10.22-15.77Z"/>
      <path class="cls-1" d="M605,2.87h14.11l6.62,25.99,7.42-25.99h10.95l6.84,25.27,6.48-25.27h13.75l-14.55,50.4h-11.09l-7.63-28.95-7.92,28.95h-11.09l-13.9-50.4Z"/>
    </g>
  </g>
</svg>