<?xml version="1.0" encoding="UTF-8"?>
<svg id="Layer_2" data-name="Layer 2" xmlns="http://www.w3.org/2000/svg" viewBox="0 0 1893.54 101.34">
  <defs>
    <style>
      .cls-1 {
        fill: none;
        stroke: #e4e4e4;
        stroke-miterlimit: 10;
        stroke-width: 3px;
      }
    </style>
  </defs>
  <g id="BACKGROUND">
    <g>
      <path class="cls-1" d="M1.5,1.5h62.51v21.06H30.91v17.23h28.86v20.24h-28.86v16.14h33.1v21.06H1.5V1.5Z"/>
      <path class="cls-1" d="M121.59,1.5h24.07l36.66,95.75h-27.77l-4.79-13.95h-31.32l-4.65,13.95h-27.36L121.59,1.5ZM142.65,62.37l-8.75-25.71-8.48,25.71h17.23Z"/>
      <path class="cls-1" d="M206.53,1.5h38.98c17.51,0,40.62,4.51,40.62,31.6,0,15.32-7.11,23.66-16.82,27.77l20.79,36.38h-31.87l-15.46-32.83h-6.84v32.83h-29.41V1.5ZM241.54,45c5.75,0,14.36-.68,14.36-11.22,0-12.31-8.75-12.72-13.27-12.72h-6.7v23.94h5.61Z"/>
      <path class="cls-1" d="M314.58,1.5h29.41v70.44h34.2v25.3h-63.6V1.5Z"/>
      <path class="cls-1" d="M411.7,58.4L380.78,1.5h29.54l18.19,35.02L447.53,1.5h27.08l-33.37,58.27v37.48h-29.54v-38.85Z"/>
      <path class="cls-1" d="M557.64,1.5h45.55c18.33,0,31.19,6.43,31.19,23.8,0,9.98-4.1,18.19-15.05,21.47,9.71,3.15,18.6,10.12,18.6,23.8s-8.21,26.67-37.07,26.67h-43.22V1.5ZM593.88,40.48c7.93,0,11.22-3.69,11.22-10.53s-3.15-10.94-10.53-10.94h-7.52v21.47h6.84ZM595.8,79.74c7.52,0,12.31-2.87,12.31-10.94,0-9.3-6.29-11.35-13.68-11.35h-7.39v22.29h8.75Z"/>
      <path class="cls-1" d="M663.5,1.5h29.41v95.75h-29.41V1.5Z"/>
      <path class="cls-1" d="M722.73,1.5h38.98c17.51,0,40.62,4.51,40.62,31.6,0,15.32-7.11,23.66-16.82,27.77l20.79,36.38h-31.87l-15.46-32.83h-6.84v32.83h-29.41V1.5ZM757.74,45c5.75,0,14.36-.68,14.36-11.22,0-12.31-8.75-12.72-13.27-12.72h-6.7v23.94h5.61Z"/>
      <path class="cls-1" d="M830.78,1.5h47.74c26.54,0,44.45,16.41,44.45,46.92s-14.36,48.83-44.73,48.83h-47.46V1.5ZM872.5,76.32c16.55,0,20.38-16.96,20.38-28.72,0-12.45-4.65-25.17-20.65-25.17h-12.04v53.89h12.31Z"/>
      <path class="cls-1" d="M1037.59,1.5h24.07l36.66,95.75h-27.77l-4.79-13.95h-31.32l-4.65,13.95h-27.36L1037.59,1.5ZM1058.65,62.37l-8.75-25.71-8.48,25.71h17.23Z"/>
      <path class="cls-1" d="M1099.55,1.5h30.5l17.1,53.48,18.19-53.48h29.54l-35.97,95.75h-25.17L1099.55,1.5Z"/>
      <path class="cls-1" d="M1230.72,1.5h24.07l36.66,95.75h-27.77l-4.79-13.95h-31.32l-4.65,13.95h-27.36L1230.72,1.5ZM1251.79,62.37l-8.75-25.71-8.48,25.71h17.23Z"/>
      <path class="cls-1" d="M1315.66,1.5h29.41v95.75h-29.41V1.5Z"/>
      <path class="cls-1" d="M1374.89,1.5h29.41v70.44h34.19v25.3h-63.6V1.5Z"/>
      <path class="cls-1" d="M1494.84,1.5h24.07l36.66,95.75h-27.77l-4.79-13.95h-31.32l-4.65,13.95h-27.36L1494.84,1.5ZM1515.9,62.37l-8.75-25.71-8.48,25.71h17.23Z"/>
      <path class="cls-1" d="M1579.78,1.5h45.55c18.33,0,31.19,6.43,31.19,23.8,0,9.98-4.1,18.19-15.05,21.47,9.71,3.15,18.6,10.12,18.6,23.8s-8.21,26.67-37.07,26.67h-43.22V1.5ZM1616.02,40.48c7.93,0,11.22-3.69,11.22-10.53s-3.15-10.94-10.53-10.94h-7.52v21.47h6.84ZM1617.94,79.74c7.52,0,12.31-2.87,12.31-10.94,0-9.3-6.29-11.35-13.68-11.35h-7.39v22.29h8.75Z"/>
      <path class="cls-1" d="M1685.64,1.5h29.41v70.44h34.2v25.3h-63.6V1.5Z"/>
      <path class="cls-1" d="M1774.55,1.5h62.51v21.06h-33.1v17.23h28.86v20.24h-28.86v16.14h33.1v21.06h-62.51V1.5Z"/>
      <path class="cls-1" d="M1861.13,84.39c0-9.03,6.84-15.59,15.46-15.59s15.46,6.57,15.46,15.59-6.98,15.46-15.46,15.46-15.46-6.57-15.46-15.46ZM1861.81,1.5h29.54l-3.69,60.59h-22.29l-3.56-60.59Z"/>
    </g>
  </g>
</svg>