<?xml version="1.0" encoding="UTF-8"?>
<svg id="Layer_2" data-name="Layer 2" xmlns="http://www.w3.org/2000/svg" viewBox="0 0 44.51 44.51">
  <defs>
    <style>
      .cls-1 {
        fill: #fff;
      }

      .cls-2 {
        fill: #08000e;
      }
    </style>
  </defs>
  <g id="TEXT_IMAGE" data-name="TEXT &amp;amp; IMAGE">
    <g>
      <rect class="cls-2" width="44.51" height="44.51" rx="12.93" ry="12.93"/>
      <g>
        <path class="cls-1" d="M27.12,34.81h-9.73c-4.24,0-7.69-3.45-7.69-7.69v-9.73c0-4.24,3.45-7.69,7.69-7.69h9.73c4.24,0,7.69,3.45,7.69,7.69v9.73c0,4.24-3.45,7.69-7.69,7.69ZM17.39,11.58c-3.2,0-5.81,2.6-5.81,5.81v9.73c0,3.2,2.6,5.81,5.81,5.81h9.73c3.2,0,5.81-2.6,5.81-5.81v-9.73c0-3.2-2.6-5.81-5.81-5.81h-9.73Z"/>
        <path class="cls-1" d="M22.25,28.61c-3.5,0-6.35-2.85-6.35-6.35s2.85-6.35,6.35-6.35,6.35,2.85,6.35,6.35-2.85,6.35-6.35,6.35ZM22.25,17.83c-2.44,0-4.43,1.99-4.43,4.43s1.99,4.43,4.43,4.43,4.43-1.99,4.43-4.43-1.99-4.43-4.43-4.43Z"/>
        <path class="cls-1" d="M30.95,15.21c0,.91-.74,1.65-1.65,1.65s-1.65-.74-1.65-1.65.74-1.65,1.65-1.65,1.65.74,1.65,1.65Z"/>
      </g>
    </g>
  </g>
</svg>