<?xml version="1.0" encoding="UTF-8"?>
<svg id="Layer_2" data-name="Layer 2" xmlns="http://www.w3.org/2000/svg" viewBox="0 0 222.87 146.31">
  <defs>
    <style>
      .cls-1 {
        fill: #fff;
      }
    </style>
  </defs>
  <g id="TEXT_IMAGE" data-name="TEXT &amp;amp; IMAGE">
    <g>
      <path d="M221.36,34.07c-1.59-5.77-6.67-9.7-12.65-9.79-4.33-.07-8.26,1.9-10.76,5.16-8.88-9.94-20.97-16.12-34.32-17.5-1.85-.19-3.73-.29-5.58-.29-3.86,0-7.65.41-11.35,1.21-.14-4.09-2.17-7.96-5.71-10.43-4.91-3.42-11.33-3.21-15.99.55-5.36,4.32-9.42,9.66-12.06,15.88-1.77,4.17-2.85,8.65-3.24,13.4h-33.08l-2.24,4.22-2.59-4.22H2.08L0,99.06h1.37L.02,146.31h205.9v-19h-3.47v-6.29h1.35v-19h-7c7.19-7.52,12.02-16.95,13.9-27.25,5.71-6.37,9.46-13.33,11.14-20.73,1.5-6.6,1.34-13.32-.49-19.97Z"/>
      <g>
        <path class="cls-1" d="M214.97,35.83c-.8-2.9-3.36-4.88-6.37-4.92-3.01-.05-5.63,1.85-6.51,4.73-.27.87-.98,3.18-4.31,4.56-1.01-1.6-2.12-3.14-3.31-4.61-7.89-9.71-19.09-15.76-31.53-17.05-1.62-.17-3.27-.25-4.9-.25-6.09,0-11.97,1.15-17.52,3.41-1.87-3.05-1.1-5.32-.81-6.18.96-2.85-.05-5.92-2.52-7.64-2.47-1.72-5.7-1.61-8.04.27-4.51,3.63-7.91,8.11-10.12,13.31-2.72,6.42-3.52,13.77-2.38,21.86-2.77,5.27-4.49,10.98-5.12,17-1.29,12.44,2.35,24.64,10.24,34.35,7.89,9.71,19.09,15.77,31.53,17.05,1.64.17,3.28.25,4.91.25,10.71,0,21.02-3.64,29.45-10.49,9.23-7.5,15.17-18.01,16.83-29.74,5.68-5.9,9.35-12.34,10.9-19.16,1.26-5.52,1.11-11.15-.42-16.74Z"/>
        <path class="cls-1" d="M44.67,92.43H6.83l1.67-53.56h35.52l.64,53.56ZM34.07,82.51l-.39-33.71h-7.97l-1.03,33.71h9.38Z"/>
        <path class="cls-1" d="M88.8,72.61l20.32,34.78h-16.49l-11.45-20.36-6.71,12.68h-26.11l18.81-35.47-15.66-25.36h16.58l6.71,10.94,5.8-10.94h26.11l-17.9,33.73Z"/>
        <path class="cls-1" d="M40.64,120.93h-17.23l-.36,18.76H6.83l1.25-43.61h31.91l.65,24.85ZM30.78,112.79l-.3-8.63h-6.42l-.42,8.63h7.13Z"/>
        <path class="cls-1" d="M41.29,136.81v2.88h-14.81l.57-15.52h12.89v2.88h-5.62l-.11,3.09h4.86v2.88h-4.97l-.13,3.81h7.32Z"/>
        <path class="cls-1" d="M69.24,139.69h-7.78l-2.61-13.09h-2.16l-.36,13.09h-12.28l.94-33.02h24.16l.5,19.93h-2.97l2.56,13.09ZM56.87,120.44h5.31l-.22-7.65h-4.86l-.23,7.65Z"/>
        <path class="cls-1" d="M74.06,104.16h13.22l-1.02,35.53h-13.22l1.02-35.53Z"/>
        <path class="cls-1" d="M112.79,134.39v5.3h-20.49l.79-28.58h16.04v5.3h-5.98l-.15,5.68h6.73v5.3h-6.88l-.19,7.01h10.13Z"/>
        <g>
          <path class="cls-1" d="M139.25,129.49l-5.5-18.56c-3.92-2.06-7.56-4.63-10.85-7.67h-7.41l-1.04,36.43h13.56l.59-20.19,5.44,20.19h13.02v-24c-2.68-.55-5.29-1.32-7.82-2.28v16.08Z"/>
          <path class="cls-1" d="M152.22,116.48c-.09,0-.18-.02-.27-.03l-.73,23.24h21.34v-5.25h-10.16l.51-12.25h7.71v-7.14c-4.23,1.13-8.61,1.71-13.06,1.71-1.77,0-3.55-.09-5.33-.28Z"/>
          <path class="cls-1" d="M176.12,139.69h23.18v-5.75h-11.46l.21-7.61h7.78v-5.75h-7.61l.17-6.18h8.8v-5.75h-12.13c-2.6,1.68-5.34,3.11-8.16,4.28l-.77,26.76Z"/>
        </g>
        <g>
          <path d="M210.53,37.05c-.55-2.02-3.42-2.06-4.03-.06-1.81,5.87-6.89,7.9-10.93,8.56-1.3-2.48-2.86-4.85-4.67-7.07-7.11-8.75-17.21-14.21-28.43-15.37-1.48-.15-2.95-.23-4.42-.23-6.6,0-13.02,1.53-18.85,4.47-2.89-2.9-5.81-7.52-3.85-13.32.67-1.98-1.68-3.62-3.31-2.31-6.25,5.03-13.6,14.88-10.59,32.42-2.89,5.04-4.71,10.68-5.33,16.63-1.16,11.22,2.12,22.22,9.23,30.97,7.11,8.75,17.21,14.21,28.43,15.37,11.22,1.16,22.22-2.12,30.97-9.23,8.72-7.08,14.17-17.13,15.36-28.29,12.75-12.49,12.55-24.8,10.42-32.55Z"/>
          <g>
            <path class="cls-1" d="M131.21,51.28c-.03-.05-.05-.11-.08-.16l-.24-.49-1.96-4.02c-1.41,2.22-2.58,4.63-3.47,7.22s-1.46,5.22-1.72,7.84l3.34-1.62c.21-.1.43-.2.67-.28l.34-.17c.18-.09.36-.18.55-.26l1.32-.64c.23-1.01.52-2.01.86-3.01.34-.97.72-1.92,1.15-2.83l-.76-1.57Z"/>
            <path class="cls-1" d="M143.01,40.51c7.12-4.36,16.06-5.63,24.55-2.7,8.46,2.92,14.69,9.4,17.61,17.19l1.61-.78c.19-.1.39-.19.61-.27l.32-.16c.88-.43,1.82-.68,2.78-.75-3.49-9.32-10.95-17.09-21.08-20.58-10.16-3.51-20.86-1.99-29.37,3.24.73.65,1.33,1.45,1.77,2.35l1.2,2.47Z"/>
            <path class="cls-1" d="M184.88,78.99s.04.08.06.12l.25.51.09.18c.11.18.21.37.3.55l1.65,3.4c1.44-2.25,2.65-4.71,3.56-7.35.9-2.62,1.47-5.27,1.73-7.91l-3.32,1.61c-.19.09-.39.18-.6.26l-.26.13-.36.17c-.17.09-.35.17-.52.25l-1.16.56c-.23,1.03-.52,2.05-.87,3.07-.36,1.04-.77,2.05-1.24,3.02l.69,1.42Z"/>
            <path class="cls-1" d="M174.21,92.01c-.11-.19-.21-.38-.3-.57l-.8-1.65c-7.1,4.3-15.98,5.54-24.42,2.62-8.47-2.93-14.72-9.43-17.63-17.24l-1.75.85c-.22.11-.45.21-.7.31l-.04.02c-.9.44-1.86.69-2.83.76,3.48,9.36,10.95,17.15,21.1,20.66,10.11,3.49,20.76,2,29.26-3.17-.73-.65-1.33-1.45-1.77-2.35l-.12-.25Z"/>
            <path class="cls-1" d="M184.82,87.05l-2.49-5.13c-.07-.14-.14-.27-.22-.4l-.09-.18-.08-.16h0c-1.74-3.74-4.18-7.23-7.21-10.29,4.27-.54,8.35-1.78,12.03-3.65h0s.18-.08.18-.08l.24-.12c.15-.05.29-.11.43-.18l5.05-2.46.16-.08c2.01-.98,2.85-3.41,1.87-5.42h0c-.49-1.01-1.34-1.72-2.32-2.06-.25-.09-.5-.15-.77-.18-.77-.11-1.58,0-2.33.37l-.45.22c-.15.06-.3.12-.44.19l-2.16,1.05-3.01,1.47h0c-6.79,3.5-15.45,4.24-23.85,1.33h0s0,0,0,0h0c-8.4-2.9-14.77-8.83-17.95-15.77h0s-.22-.46-.22-.46c-.03-.08-.06-.15-.1-.23l-1.08-2.22-1.46-3c-.38-.77-.97-1.37-1.66-1.76-.21-.12-.43-.22-.66-.3-.98-.34-2.09-.3-3.1.19h0c-2.01.98-2.85,3.41-1.87,5.42l.06.12.24.5s.03.07.05.11l2.5,5.14v.03s.02,0,.02,0c1.74,3.75,4.18,7.24,7.21,10.3-4.27.54-8.35,1.78-12.03,3.65h0s-.01,0-.01,0l-.17.08c-.16.06-.33.12-.49.2l-5.08,2.47-.13.06c-2.01.98-2.85,3.41-1.87,5.42.49,1.01,1.34,1.72,2.32,2.06.23.08.47.14.72.17.79.12,1.61.01,2.38-.36l.2-.1c.17-.06.34-.13.51-.22l2.3-1.12,2.86-1.39h0c6.79-3.5,15.45-4.24,23.85-1.33,8.4,2.9,14.76,8.83,17.94,15.77h0s1.45,2.98,1.45,2.98l1.06,2.19c.06.14.14.28.22.41l.18.37c.38.78.97,1.38,1.67,1.77.21.12.43.22.65.29.98.34,2.09.3,3.1-.19,2.01-.98,2.85-3.41,1.87-5.42l-.04-.08Z"/>
          </g>
        </g>
      </g>
    </g>
  </g>
</svg>