<?xml version="1.0" encoding="UTF-8"?>
<svg id="Layer_2" data-name="Layer 2" xmlns="http://www.w3.org/2000/svg" viewBox="0 0 299.93 281.96">
  <defs>
    <style>
      .cls-1 {
        fill: #d64532;
      }

      .cls-2 {
        fill: #fff;
      }
    </style>
  </defs>
  <g id="TEXT_IMAGE" data-name="TEXT &amp;amp; IMAGE">
    <g>
      <path class="cls-1" d="M282.82,8.85c-4.92-7.4-13.92-10.58-22.42-7.92-8.49,2.65-14.08,10.41-13.9,19.28.05,2.7.2,9.82-7.87,16.76-4.31-3.56-8.84-6.86-13.56-9.88C193.97,7.14,156.95.51,120.85,8.4c-4.71,1.03-9.41,2.31-13.97,3.81-17.08,5.63-32.51,14.28-46.01,25.78-8.07-6.82-8.01-13.91-7.99-16.6.07-8.88-5.61-16.56-14.13-19.12-8.52-2.55-17.49.74-22.32,8.2C7.15,24.82,1.73,40.53.35,57.16c-1.71,20.53,2.84,41.88,13.54,63.52-2.91,17.35-2.46,34.97,1.36,52.43,7.89,36.1,29.37,66.97,60.48,86.92,31.11,19.95,68.13,26.59,104.23,18.69,4.76-1.04,9.43-2.32,14-3.82,30.06-9.9,55.6-29.65,72.92-56.66,18.97-29.59,25.91-64.56,19.73-98.98,10.49-21.81,14.82-43.26,12.88-63.82-1.58-16.65-7.18-32.32-16.66-46.58Z"/>
      <g>
        <path class="cls-2" d="M271.48,16.39c-3.42-5.15-11.49-2.62-11.37,3.56.36,18.14-12.02,28.53-22.76,34.13-5.94-5.75-12.5-10.95-19.62-15.52-28.05-17.98-61.42-23.97-93.97-16.85-4.29.94-8.5,2.09-12.62,3.45-18.5,6.1-35.11,16.33-48.75,29.96-10.79-5.47-23.26-15.71-23.12-33.82.05-6.18-8.05-8.6-11.41-3.42-12.88,19.9-24.39,54.32.26,100.74-3.44,16.82-3.35,34.32.43,51.6,7.12,32.55,26.48,60.38,54.53,78.37,28.05,17.98,61.42,23.97,93.97,16.85,32.55-7.12,60.38-26.48,78.37-54.53,17.91-27.93,23.91-61.14,16.94-93.56,24.22-46.83,12.28-81.17-.86-100.94Z"/>
        <g>
          <path class="cls-1" d="M62.11,129.64c-.12-.13-.25-.25-.37-.38l-1.11-1.14-9.21-9.48c-1.89,7.52-2.96,15.37-3.07,23.45-.12,8.1.72,16,2.41,23.59l7.87-7.65c.5-.48,1.03-.95,1.62-1.42l.81-.79c.43-.42.86-.84,1.29-1.25l3.11-3.01c-.28-3.04-.41-6.12-.37-9.24.04-3.04.25-6.05.61-9.01l-3.58-3.69Z"/>
          <path class="cls-1" d="M85.26,88.51c15.93-18.82,39.85-30.65,66.37-30.27,26.43.38,49.91,12.8,65.3,31.95l3.79-3.68c.45-.45.92-.89,1.45-1.33l.75-.73c2.08-2.02,4.49-3.6,7.09-4.68-18.41-22.94-46.52-37.81-78.15-38.27-31.74-.46-60.35,13.7-79.41,36.22,2.64,1.16,5.07,2.83,7.14,4.96l5.65,5.82Z"/>
          <path class="cls-1" d="M238.3,157.74c.09.09.18.18.27.27l1.16,1.19.42.43c.48.42.92.84,1.35,1.27l7.79,8.01c1.96-7.66,3.07-15.66,3.19-23.9.12-8.17-.74-16.14-2.45-23.79l-7.82,7.6c-.45.44-.92.86-1.44,1.27l-.61.59-.84.82c-.41.4-.82.8-1.23,1.2l-2.73,2.65c.3,3.1.43,6.24.39,9.43-.05,3.25-.28,6.45-.68,9.61l3.26,3.35Z"/>
          <path class="cls-1" d="M220.39,204.15c-.49-.44-.94-.88-1.36-1.32l-3.77-3.88c-15.93,18.63-39.72,30.32-66.09,29.94-26.48-.38-50.01-12.85-65.4-32.07l-4.13,4.01c-.51.51-1.06,1.01-1.67,1.51l-.1.09c-2.12,2.06-4.58,3.66-7.24,4.74,18.41,23.04,46.58,37.99,78.3,38.45,31.6.45,60.09-13.57,79.15-35.93-2.64-1.16-5.06-2.83-7.13-4.96l-.57-.59Z"/>
          <path class="cls-1" d="M245.59,180.42l-11.74-12.08c-.32-.33-.65-.62-.99-.91l-.41-.42-.37-.38h-.01c-8.34-8.88-18.41-16.43-29.73-22.22,11.5-5.46,21.78-12.71,30.38-21.37h.01s.41-.39.41-.39l.57-.56c.36-.28.72-.58,1.05-.9l11.91-11.57.37-.36c4.74-4.61,4.85-12.19.24-16.93h0c-2.3-2.37-5.35-3.59-8.42-3.63-.78-.01-1.55.05-2.32.19-2.26.41-4.43,1.47-6.2,3.19l-1.07,1.04c-.37.3-.73.61-1.06.95l-5.08,4.93-7.1,6.89h0c-15.81,16.11-39.43,26.17-65.69,25.79h0s0,0-.01,0h0c-26.26-.38-49.58-11.11-64.92-27.66h0s-1.05-1.09-1.05-1.09c-.16-.18-.31-.37-.48-.54l-5.08-5.22-6.86-7.06c-1.77-1.82-3.97-2.95-6.29-3.4-.7-.14-1.41-.22-2.13-.23-3.06-.04-6.15,1.08-8.52,3.39h0c-4.74,4.61-4.85,12.19-.24,16.93l.28.29,1.14,1.17c.08.08.15.17.23.25l11.77,12.11.06.06h.01c8.34,8.89,18.41,16.44,29.75,22.22-11.49,5.46-21.77,12.71-30.36,21.36h-.01s-.03.01-.03.01l-.39.38c-.41.31-.81.63-1.19,1l-11.98,11.64-.31.3c-4.74,4.61-4.85,12.19-.24,16.93,2.3,2.37,5.35,3.59,8.42,3.63.73.01,1.45-.05,2.17-.17,2.31-.39,4.54-1.46,6.35-3.22l.47-.45c.43-.33.85-.69,1.23-1.08l5.43-5.28,6.74-6.55h0c15.81-16.1,39.43-26.16,65.68-25.79,26.26.38,49.58,11.11,64.92,27.66h0s6.82,7.02,6.82,7.02l5.01,5.15c.31.34.65.65.99.95l.86.88c1.78,1.83,4,2.96,6.32,3.41.69.13,1.39.21,2.1.22,3.06.04,6.15-1.08,8.52-3.39,4.74-4.61,4.85-12.19.24-16.93l-.19-.2Z"/>
        </g>
      </g>
    </g>
  </g>
</svg>