<?xml version="1.0" encoding="UTF-8"?>
<svg id="Layer_2" data-name="Layer 2" xmlns="http://www.w3.org/2000/svg" viewBox="0 0 1166.86 56.14">
  <defs>
    <style>
      .cls-1 {
        fill: none;
        stroke: #e4e4e4;
        stroke-miterlimit: 10;
        stroke-width: 3px;
      }
    </style>
  </defs>
  <g id="BACKGROUND">
    <g>
      <path class="cls-1" d="M1.5,2.87h20.88c9.43,0,21.39,3.1,21.39,17.93,0,13.68-10.22,17.64-19.95,17.64h-6.84v14.83H1.5V2.87ZM20.22,28.14c4.32,0,7.56-1.37,7.56-7.56s-3.38-7.42-6.98-7.42h-3.82v14.98h3.24Z"/>
      <path class="cls-1" d="M57.16,2.87h20.52c9.22,0,21.39,2.38,21.39,16.63,0,8.06-3.74,12.46-8.86,14.62l10.95,19.15h-16.78l-8.14-17.28h-3.6v17.28h-15.48V2.87ZM75.59,25.77c3.02,0,7.56-.36,7.56-5.9,0-6.48-4.61-6.7-6.98-6.7h-3.53v12.6h2.95Z"/>
      <path class="cls-1" d="M114.03,2.87h32.91v11.09h-17.43v9.07h15.19v10.66h-15.19v8.5h17.43v11.09h-32.91V2.87Z"/>
      <path class="cls-1" d="M189.85,48.23l2.52-11.38c4.97,4.18,10.8,6.7,16.35,6.7,4.39,0,6.77-1.58,6.77-3.74,0-6.77-24.27-4.1-24.27-22.18,0-10.08,7.42-16.06,20.09-16.06,7.56,0,13.46,2.09,17.35,5.18l-2.74,10.58c-4.61-3.24-9.94-5.26-14.91-5.26-3.82,0-6.48,1.15-6.48,3.46,0,6.77,25.35,4.68,25.35,22.68,0,9.86-7.7,16.35-20.31,16.35-6.98,0-14.62-2.02-19.73-6.34Z"/>
      <path class="cls-1" d="M258.18,2.87h12.67l19.3,50.4h-14.62l-2.52-7.34h-16.49l-2.45,7.34h-14.4l18.51-50.4ZM269.27,34.91l-4.61-13.54-4.46,13.54h9.07Z"/>
      <path class="cls-1" d="M302.89,2.87h15.48v37.08h18v13.32h-33.48V2.87Z"/>
      <path class="cls-1" d="M349.69,2.87h32.91v11.09h-17.43v9.07h15.19v10.66h-15.19v8.5h17.43v11.09h-32.91V2.87Z"/>
      <path class="cls-1" d="M436.81,17.7l-7.99,4.03-3.89-7.56,18.22-11.3h8.93v50.4h-15.27V17.7Z"/>
      <path class="cls-1" d="M514.35,2.87h12.67l19.3,50.4h-14.62l-2.52-7.34h-16.49l-2.45,7.34h-14.4l18.51-50.4ZM525.44,34.91l-4.61-13.54-4.46,13.54h9.07Z"/>
      <path class="cls-1" d="M546.97,2.87h16.06l9,28.15,9.58-28.15h15.55l-18.94,50.4h-13.25l-18-50.4Z"/>
      <path class="cls-1" d="M616.01,2.87h12.67l19.3,50.4h-14.62l-2.52-7.34h-16.49l-2.45,7.34h-14.4l18.51-50.4ZM627.1,34.91l-4.61-13.54-4.46,13.54h9.07Z"/>
      <path class="cls-1" d="M660.73,2.87h15.48v37.08h18v13.32h-33.48V2.87Z"/>
      <path class="cls-1" d="M723.87,2.87h12.67l19.3,50.4h-14.62l-2.52-7.34h-16.49l-2.45,7.34h-14.4l18.51-50.4ZM734.96,34.91l-4.61-13.54-4.46,13.54h9.07Z"/>
      <path class="cls-1" d="M768.58,2.87h15.48v50.4h-15.48V2.87Z"/>
      <path class="cls-1" d="M799.75,2.87h23.98c9.65,0,16.42,3.38,16.42,12.53,0,5.26-2.16,9.58-7.92,11.31,5.11,1.66,9.79,5.33,9.79,12.53s-4.32,14.04-19.51,14.04h-22.75V2.87ZM818.84,23.39c4.18,0,5.9-1.94,5.9-5.54s-1.66-5.76-5.54-5.76h-3.96v11.3h3.6ZM819.84,44.06c3.96,0,6.48-1.51,6.48-5.76,0-4.9-3.31-5.98-7.2-5.98h-3.89v11.74h4.61Z"/>
      <path class="cls-1" d="M855.48,2.87h15.48v37.08h18v13.32h-33.48V2.87Z"/>
      <path class="cls-1" d="M902.28,2.87h32.91v11.09h-17.43v9.07h15.19v10.66h-15.19v8.5h17.43v11.09h-32.91V2.87Z"/>
      <path class="cls-1" d="M980.47,2.87h11.09l19.3,27.36V2.87h12.31v50.4h-11.02l-19.44-26.71v26.71h-12.24V2.87Z"/>
      <path class="cls-1" d="M1036.92,28.5c0-16.35,8.86-27,26.21-27s26.21,10.8,26.21,26.79c0,17.5-10.66,26.35-26.57,26.35s-25.85-8.93-25.85-26.14ZM1073.43,28.36c0-10.3-3.6-16.35-10.3-16.35s-10.3,6.19-10.3,16.2,3.74,15.91,10.37,15.91,10.22-5.54,10.22-15.77Z"/>
      <path class="cls-1" d="M1098.7,2.87h14.11l6.62,25.99,7.42-25.99h10.95l6.84,25.27,6.48-25.27h13.75l-14.54,50.4h-11.09l-7.63-28.95-7.92,28.95h-11.09l-13.9-50.4Z"/>
    </g>
  </g>
</svg>