<?xml version="1.0" encoding="UTF-8"?>
<svg id="Layer_2" data-name="Layer 2" xmlns="http://www.w3.org/2000/svg" viewBox="0 0 453.57 56">
  <defs>
    <style>
      .cls-1 {
        fill: none;
        stroke: #e4e4e4;
        stroke-miterlimit: 10;
        stroke-width: 3px;
      }
    </style>
  </defs>
  <g id="BACKGROUND">
    <g>
      <path class="cls-1" d="M1.5,2.8h20.88c9.43,0,21.39,3.1,21.39,17.93,0,13.68-10.22,17.64-19.95,17.64h-6.84v14.83H1.5V2.8ZM20.22,28.07c4.32,0,7.56-1.37,7.56-7.56s-3.38-7.42-6.98-7.42h-3.82v14.98h3.24Z"/>
      <path class="cls-1" d="M57.16,2.8h20.52c9.22,0,21.39,2.38,21.39,16.63,0,8.06-3.74,12.46-8.86,14.62l10.95,19.15h-16.78l-8.14-17.28h-3.6v17.28h-15.48V2.8ZM75.59,25.69c3.02,0,7.56-.36,7.56-5.9,0-6.48-4.61-6.7-6.98-6.7h-3.53v12.6h2.95Z"/>
      <path class="cls-1" d="M114.03,2.8h32.91v11.09h-17.43v9.07h15.19v10.66h-15.19v8.5h17.43v11.09h-32.91V2.8Z"/>
      <path class="cls-1" d="M189.85,48.16l2.52-11.38c4.97,4.18,10.8,6.7,16.34,6.7,4.39,0,6.77-1.58,6.77-3.74,0-6.77-24.27-4.1-24.27-22.18,0-10.08,7.42-16.06,20.09-16.06,7.56,0,13.46,2.09,17.35,5.18l-2.74,10.58c-4.61-3.24-9.94-5.26-14.91-5.26-3.82,0-6.48,1.15-6.48,3.46,0,6.77,25.35,4.68,25.35,22.68,0,9.86-7.7,16.35-20.31,16.35-6.98,0-14.62-2.02-19.73-6.34Z"/>
      <path class="cls-1" d="M258.18,2.8h12.67l19.3,50.4h-14.62l-2.52-7.34h-16.49l-2.45,7.34h-14.4l18.51-50.4ZM269.27,34.84l-4.61-13.54-4.46,13.54h9.07Z"/>
      <path class="cls-1" d="M302.89,2.8h15.48v37.08h18v13.32h-33.48V2.8Z"/>
      <path class="cls-1" d="M349.69,2.8h32.91v11.09h-17.43v9.07h15.19v10.66h-15.19v8.5h17.43v11.09h-32.91V2.8Z"/>
      <path class="cls-1" d="M436.81,17.63l-7.99,4.03-3.89-7.56,18.22-11.3h8.93v50.4h-15.27V17.63Z"/>
    </g>
  </g>
</svg>