<?xml version="1.0" encoding="UTF-8"?>
<svg id="Layer_2" data-name="Layer 2" xmlns="http://www.w3.org/2000/svg" xmlns:xlink="http://www.w3.org/1999/xlink" viewBox="0 0 761.03 220.58">
  <defs>
    <style>
      .cls-1 {
        fill: url(#linear-gradient);
        stroke: #e4e4e4;
        stroke-miterlimit: 10;
        stroke-width: 2.83px;
      }
    </style>
    <linearGradient id="linear-gradient" x1="1.42" y1="110.29" x2="759.61" y2="110.29" gradientUnits="userSpaceOnUse">
      <stop offset="0" stop-color="#fff" stop-opacity=".6"/>
      <stop offset="1" stop-color="#fff" stop-opacity=".2"/>
    </linearGradient>
  </defs>
  <g id="TEXT_IMAGE" data-name="TEXT &amp;amp; IMAGE">
    <path class="cls-1" d="M759.36,19.79c-.05-.36-.12-.71-.19-1.07-.36-1.76-.94-3.45-1.7-5.03-.3-.63-.64-1.25-1-1.84-.36-.6-.75-1.17-1.17-1.73s-.86-1.09-1.32-1.61c-.7-.77-1.45-1.49-2.26-2.15-3.75-3.09-8.55-4.95-13.79-4.95H23.09c-5.24,0-10.04,1.86-13.79,4.95-.8.66-1.56,1.38-2.26,2.15-.47.51-.91,1.05-1.32,1.61s-.81,1.13-1.17,1.73c-.36.6-.7,1.21-1,1.84-.76,1.58-1.34,3.26-1.7,5.03-.07.35-.14.71-.19,1.07-.16,1.08-.25,2.18-.25,3.3h0v35.41c0,5.27,1.92,10.35,5.39,14.31l24.02,17.14c7.14,5.1,11.23,12.55,12.29,20.34-1.06,7.8-5.15,15.25-12.29,20.34l-24.02,17.14c-3.48,3.96-5.39,9.04-5.39,14.31v35.41h0c0,1.12.09,2.22.25,3.3.05.36.12.71.19,1.07.36,1.76.94,3.45,1.7,5.03.3.63.64,1.25,1,1.84.36.6.75,1.17,1.17,1.73.62.83,1.31,1.62,2.04,2.36.49.49,1,.96,1.54,1.4,3.75,3.09,8.55,4.95,13.79,4.95h714.85c5.24,0,10.04-1.86,13.79-4.95.54-.44,1.05-.91,1.54-1.4.74-.74,1.42-1.52,2.04-2.36.42-.56.81-1.13,1.17-1.73.36-.6.7-1.21,1-1.84.76-1.58,1.34-3.26,1.7-5.03.07-.35.14-.71.19-1.07.16-1.08.25-2.18.25-3.3h0v-35.41c0-5.27-1.92-10.35-5.39-14.31l-24.02-17.14c-7.14-5.1-11.23-12.55-12.29-20.34,1.06-7.8,5.15-15.25,12.29-20.34l24.02-17.14c3.48-3.96,5.39-9.04,5.39-14.31V23.09h0c0-1.12-.09-2.22-.25-3.3Z"/>
  </g>
</svg>