<?xml version="1.0" encoding="UTF-8"?>
<svg id="Layer_2" xmlns="http://www.w3.org/2000/svg" version="1.1" viewBox="0 0 761 220.6">
  <!-- Generator: Adobe Illustrator 29.5.1, SVG Export Plug-In . SVG Version: 2.1.0 Build 141)  -->
  <defs>
    <style>
      .st0 {
        fill: #e3fd55;
        stroke: #e4e4e4;
        stroke-miterlimit: 10;
        stroke-width: 2.8px;
      }
    </style>
  </defs>
  <g id="TEXT_IMAGE">
    <path class="st0" d="M759.4,19.8c0-.4-.1-.7-.2-1.1-.4-1.8-.9-3.4-1.7-5-.3-.6-.6-1.2-1-1.8-.4-.6-.8-1.2-1.2-1.7s-.9-1.1-1.3-1.6c-.7-.8-1.5-1.5-2.3-2.2-3.8-3.1-8.5-4.9-13.8-4.9H23.1c-5.2,0-10,1.9-13.8,4.9-.8.7-1.6,1.4-2.3,2.2-.5.5-.9,1.1-1.3,1.6s-.8,1.1-1.2,1.7c-.4.6-.7,1.2-1,1.8-.8,1.6-1.3,3.3-1.7,5,0,.4-.1.7-.2,1.1-.2,1.1-.2,2.2-.2,3.3h0v35.4c0,5.3,1.9,10.3,5.4,14.3l24,17.1c7.1,5.1,11.2,12.6,12.3,20.3-1.1,7.8-5.2,15.2-12.3,20.3l-24,17.1c-3.5,4-5.4,9-5.4,14.3v35.4h0c0,1.1,0,2.2.2,3.3,0,.4.1.7.2,1.1.4,1.8.9,3.4,1.7,5,.3.6.6,1.2,1,1.8.4.6.8,1.2,1.2,1.7.6.8,1.3,1.6,2,2.4.5.5,1,1,1.5,1.4,3.8,3.1,8.5,4.9,13.8,4.9h714.9c5.2,0,10-1.9,13.8-4.9.5-.4,1-.9,1.5-1.4.7-.7,1.4-1.5,2-2.4.4-.6.8-1.1,1.2-1.7.4-.6.7-1.2,1-1.8.8-1.6,1.3-3.3,1.7-5,0-.4.1-.7.2-1.1.2-1.1.2-2.2.2-3.3h0v-35.4c0-5.3-1.9-10.4-5.4-14.3l-24-17.1c-7.1-5.1-11.2-12.6-12.3-20.3,1.1-7.8,5.2-15.2,12.3-20.3l24-17.1c3.5-4,5.4-9,5.4-14.3V23.1h0c0-1.1,0-2.2-.2-3.3h0Z"/>
  </g>
</svg>