<?xml version="1.0" encoding="UTF-8"?>
<svg id="Layer_2" xmlns="http://www.w3.org/2000/svg" version="1.1" viewBox="0 0 43 43">
  <!-- Generator: Adobe Illustrator 29.5.1, SVG Export Plug-In . SVG Version: 2.1.0 Build 141)  -->
  <defs>
    <style>
      .st0 {
        fill: #fff;
      }

      .st1 {
        fill-rule: evenodd;
      }
    </style>
  </defs>
  <ellipse class="st0" cx="21.5" cy="22.8" rx="18.4" ry="18.1"/>
  <path class="st1" d="M21.5,0C9.6,0,0,9.6,0,21.5s9.6,21.5,21.5,21.5,21.5-9.6,21.5-21.5S33.3,0,21.5,0h0ZM26.5,15.7v.7h0v9.3c0,2.2-.9,4.3-2.4,5.9s-3.7,2.4-5.9,2.4-4.3-.9-5.9-2.4c-1.6-1.6-2.4-3.7-2.4-5.9s.9-4.3,2.4-5.9c1.6-1.6,3.7-2.4,5.9-2.4h1.5v4.4h-1.5c-1,0-2,.4-2.8,1.2-.7.7-1.2,1.7-1.2,2.8s.4,2,1.2,2.8c.7.7,1.7,1.2,2.8,1.2s2-.4,2.8-1.2c.7-.7,1.2-1.7,1.2-2.8V9h4.4l.2.4c.7,1.3,1.6,2.4,2.7,3.3.9.7,1.9,1.2,3,1.4h.8c0,.1-.8,4.4-.8,4.4h-.8c-.9-.3-1.8-.6-2.6-.9-.9-.4-1.8-1-2.5-1.8h0Z"/>
</svg>